<svg width="24" height="24" viewBox="0 0 24 24" fill="none" xmlns="http://www.w3.org/2000/svg">
<path d="M5.18988 6.37994C4.99988 6.37994 4.79988 6.29994 4.65988 6.15994C4.36988 5.86994 4.36988 5.38994 4.65988 5.09994L8.28988 1.46994C8.57988 1.17994 9.05988 1.17994 9.34988 1.46994C9.63988 1.75994 9.63988 2.23994 9.34988 2.52994L5.71988 6.15994C5.56988 6.29994 5.37988 6.37994 5.18988 6.37994Z" fill="#1648A8"/>
<path d="M18.8101 6.37994C18.6201 6.37994 18.4301 6.30994 18.2801 6.15994L14.6501 2.52994C14.3601 2.23994 14.3601 1.75994 14.6501 1.46994C14.9401 1.17994 15.4201 1.17994 15.7101 1.46994L19.3401 5.09994C19.6301 5.38994 19.6301 5.86994 19.3401 6.15994C19.2001 6.29994 19.0001 6.37994 18.8101 6.37994Z" fill="#1648A8"/>
<path d="M20.21 10.6C20.14 10.6 20.07 10.6 20 10.6H19.77H4C3.3 10.61 2.5 10.61 1.92 10.03C1.46 9.57998 1.25 8.87998 1.25 7.84998C1.25 5.09998 3.26 5.09998 4.22 5.09998H19.78C20.74 5.09998 22.75 5.09998 22.75 7.84998C22.75 8.88998 22.54 9.57998 22.08 10.03C21.56 10.55 20.86 10.6 20.21 10.6ZM4.22 9.09998H20.01C20.46 9.10998 20.88 9.10998 21.02 8.96998C21.09 8.89998 21.24 8.65998 21.24 7.84998C21.24 6.71998 20.96 6.59998 19.77 6.59998H4.22C3.03 6.59998 2.75 6.71998 2.75 7.84998C2.75 8.65998 2.91 8.89998 2.97 8.96998C3.11 9.09998 3.54 9.09998 3.98 9.09998H4.22Z" fill="#1648A8"/>
<path d="M9.76001 18.3C9.35001 18.3 9.01001 17.96 9.01001 17.55V14C9.01001 13.59 9.35001 13.25 9.76001 13.25C10.17 13.25 10.51 13.59 10.51 14V17.55C10.51 17.97 10.17 18.3 9.76001 18.3Z" fill="#1648A8"/>
<path d="M14.3601 18.3C13.9501 18.3 13.6101 17.96 13.6101 17.55V14C13.6101 13.59 13.9501 13.25 14.3601 13.25C14.7701 13.25 15.1101 13.59 15.1101 14V17.55C15.1101 17.97 14.7701 18.3 14.3601 18.3Z" fill="#1648A8"/>
<path d="M14.89 22.75H8.86C5.28 22.75 4.48 20.62 4.17 18.77L2.76 10.12C2.69 9.71 2.97 9.33 3.38 9.26C3.79 9.19 4.17 9.47 4.24 9.88L5.65 18.52C5.94 20.29 6.54 21.25 8.86 21.25H14.89C17.46 21.25 17.75 20.35 18.08 18.61L19.76 9.86C19.84 9.45 20.23 9.18 20.64 9.27C21.05 9.35 21.31 9.74 21.23 10.15L19.55 18.9C19.16 20.93 18.51 22.75 14.89 22.75Z" fill="#1648A8"/>
</svg>
