<svg width="18" height="18" viewBox="0 0 18 18" fill="none" xmlns="http://www.w3.org/2000/svg">
<path fill-rule="evenodd" clip-rule="evenodd" d="M17 2C17 1.44772 16.5523 1 16 1H2C1.44772 1 1 1.44772 1 2V3.58579C1 3.851 1.10536 4.10536 1.29289 4.29289L5.7071 8.7071C5.89464 8.89464 5.99999 9.14899 5.99999 9.41421V16.3063C5.99999 16.6476 6.33434 16.8886 6.65811 16.7806L11.6581 15.114C11.8623 15.0459 12 14.8548 12 14.6396V9.41422C12 9.149 12.1054 8.89465 12.2929 8.70711L16.7071 4.29289C16.8946 4.10536 17 3.851 17 3.58579V2Z" fill="#7E869E" fill-opacity="0.25"/>
<path d="M6.65811 16.7806L6.84784 17.3498H6.84784L6.65811 16.7806ZM11.6581 15.114L11.8478 15.6832H11.8478L11.6581 15.114ZM16.7071 4.29289L17.1314 4.71716L16.7071 4.29289ZM12.2929 8.70711L11.8686 8.28285L12.2929 8.70711ZM2 1.6H16V0.4H2V1.6ZM1.6 3.58579V2H0.4V3.58579H1.6ZM6.13136 8.28284L1.71716 3.86863L0.868629 4.71716L5.28284 9.13136L6.13136 8.28284ZM5.39999 9.41421V16.3063H6.59999V9.41421H5.39999ZM5.39999 16.3063C5.39999 17.0571 6.13556 17.5873 6.84784 17.3498L6.46837 16.2114C6.53312 16.1898 6.59999 16.238 6.59999 16.3063H5.39999ZM6.84784 17.3498L11.8478 15.6832L11.4684 14.5448L6.46837 16.2114L6.84784 17.3498ZM11.8478 15.6832C12.297 15.5335 12.6 15.1131 12.6 14.6396H11.4C11.4 14.5966 11.4275 14.5584 11.4684 14.5448L11.8478 15.6832ZM12.6 14.6396V9.41422H11.4V14.6396H12.6ZM16.2828 3.86863L11.8686 8.28285L12.7172 9.13138L17.1314 4.71716L16.2828 3.86863ZM16.4 2V3.58579H17.6V2H16.4ZM17.1314 4.71716C17.4314 4.4171 17.6 4.01013 17.6 3.58579H16.4C16.4 3.69187 16.3579 3.79361 16.2828 3.86863L17.1314 4.71716ZM12.6 9.41422C12.6 9.30813 12.6421 9.20639 12.7172 9.13138L11.8686 8.28285C11.5686 8.58291 11.4 8.98987 11.4 9.41422H12.6ZM5.28284 9.13136C5.35785 9.20638 5.39999 9.30812 5.39999 9.41421H6.59999C6.59999 8.98986 6.43142 8.58289 6.13136 8.28284L5.28284 9.13136ZM0.4 3.58579C0.4 4.01013 0.568571 4.4171 0.868629 4.71716L1.71716 3.86863C1.64214 3.79361 1.6 3.69187 1.6 3.58579H0.4ZM16 1.6C16.2209 1.6 16.4 1.77909 16.4 2H17.6C17.6 1.11634 16.8837 0.4 16 0.4V1.6ZM2 0.4C1.11634 0.4 0.4 1.11634 0.4 2H1.6C1.6 1.77909 1.77909 1.6 2 1.6V0.4Z" fill="#1F2324"/>
</svg>
